<svg xmlns="http://www.w3.org/2000/svg" width="1400" height="820" viewBox="0 0 1400 820">
  <defs>
    <linearGradient id="chip-bg" x1="0" y1="0" x2="1" y2="1">
      <stop offset="0" stop-color="#dff5ff"/>
      <stop offset="1" stop-color="#aee1ff"/>
    </linearGradient>
    <style>
      .title { font-family: Georgia, serif; font-size: 24px; font-weight: 700; fill: #102033; }
      .label { font-family: Georgia, serif; font-size: 20px; fill: #111827; }
      .small { font-family: Georgia, serif; font-size: 18px; fill: #111827; }
      .tiny { font-family: Georgia, serif; font-size: 16px; fill: #334155; }
      .box { fill: #ffffff; stroke: #111827; stroke-width: 2.4; }
      .fabric { fill: #ffffff; stroke: #111827; stroke-width: 2.4; }
      .chip { fill: url(#chip-bg); stroke: #0f8eda; stroke-width: 3; }
      .line { fill: none; stroke: #111827; stroke-width: 2.4; stroke-linecap: square; }
    </style>
  </defs>

  <rect x="36" y="168" width="1328" height="560" class="chip"/>
  <text x="1270" y="205" class="title" text-anchor="middle">Cyclone V</text>
  <text x="1270" y="234" class="small" text-anchor="middle">FPGA chip</text>
  <text x="1270" y="262" class="small" text-anchor="middle">(DE1-SoC)</text>

  <rect x="550" y="22" width="300" height="74" class="box"/>
  <text x="700" y="67" class="title" text-anchor="middle">Host computer</text>

  <rect x="625" y="122" width="150" height="72" class="box"/>
  <text x="700" y="151" class="small" text-anchor="middle">USB-Blaster</text>
  <text x="700" y="178" class="small" text-anchor="middle">interface</text>

  <path d="M700 96 L700 122" class="line"/>
  <path d="M700 194 L700 280" class="line"/>

  <rect x="95" y="280" width="300" height="86" class="box"/>
  <text x="245" y="331" class="title" text-anchor="middle">Nios II processor</text>

  <rect x="485" y="280" width="190" height="86" class="box"/>
  <text x="580" y="316" class="small" text-anchor="middle">JTAG Debug</text>
  <text x="580" y="344" class="small" text-anchor="middle">module</text>

  <rect x="760" y="280" width="210" height="86" class="box"/>
  <text x="865" y="316" class="small" text-anchor="middle">JTAG UART</text>
  <text x="865" y="344" class="small" text-anchor="middle">interface</text>

  <rect x="1040" y="303" width="270" height="62" class="box"/>
  <text x="1175" y="328" class="small" text-anchor="middle">Custom accelerator</text>
  <text x="1175" y="354" class="small" text-anchor="middle">Avalon-MM slave + master</text>

  <path d="M395 323 L485 323" class="line"/>
  <path d="M675 323 L760 323" class="line"/>
  <path d="M700 280 L700 194" class="line"/>
  <path d="M700 280 L865 280 L865 280" class="line"/>

  <rect x="86" y="460" width="1240" height="88" class="fabric"/>
  <text x="706" y="513" class="title" text-anchor="middle">Avalon-MM interconnect / switch fabric</text>

  <path d="M245 366 L245 460" class="line"/>
  <path d="M865 366 L865 460" class="line"/>
  <path d="M1175 365 L1175 460" class="line"/>

  <g>
    <rect x="76" y="608" width="112" height="88" class="box"/>
    <text x="132" y="642" class="small" text-anchor="middle">On-chip</text>
    <text x="132" y="670" class="small" text-anchor="middle">memory</text>
    <path d="M132 548 L132 608" class="line"/>

    <rect x="198" y="608" width="122" height="88" class="box"/>
    <text x="259" y="642" class="small" text-anchor="middle">Input layer</text>
    <text x="259" y="670" class="small" text-anchor="middle">memory</text>
    <path d="M259 548 L259 608" class="line"/>

    <rect x="330" y="608" width="104" height="88" class="box"/>
    <text x="382" y="642" class="small" text-anchor="middle">W1</text>
    <text x="382" y="670" class="small" text-anchor="middle">memory</text>
    <path d="M382 548 L382 608" class="line"/>

    <rect x="444" y="608" width="104" height="88" class="box"/>
    <text x="496" y="642" class="small" text-anchor="middle">B1</text>
    <text x="496" y="670" class="small" text-anchor="middle">memory</text>
    <path d="M496 548 L496 608" class="line"/>

    <rect x="558" y="608" width="104" height="88" class="box"/>
    <text x="610" y="642" class="small" text-anchor="middle">W2</text>
    <text x="610" y="670" class="small" text-anchor="middle">memory</text>
    <path d="M610 548 L610 608" class="line"/>

    <rect x="672" y="608" width="104" height="88" class="box"/>
    <text x="724" y="642" class="small" text-anchor="middle">B2</text>
    <text x="724" y="670" class="small" text-anchor="middle">memory</text>
    <path d="M724 548 L724 608" class="line"/>

    <rect x="786" y="608" width="104" height="88" class="box"/>
    <text x="838" y="642" class="small" text-anchor="middle">W3</text>
    <text x="838" y="670" class="small" text-anchor="middle">memory</text>
    <path d="M838 548 L838 608" class="line"/>

    <rect x="900" y="608" width="104" height="88" class="box"/>
    <text x="952" y="642" class="small" text-anchor="middle">B3</text>
    <text x="952" y="670" class="small" text-anchor="middle">memory</text>
    <path d="M952 548 L952 608" class="line"/>

    <rect x="1018" y="608" width="94" height="88" class="box"/>
    <text x="1065" y="642" class="small" text-anchor="middle">LED</text>
    <text x="1065" y="670" class="small" text-anchor="middle">PIO</text>
    <path d="M1065 548 L1065 608" class="line"/>

    <rect x="1126" y="608" width="104" height="88" class="box"/>
    <text x="1178" y="642" class="small" text-anchor="middle">Switch</text>
    <text x="1178" y="670" class="small" text-anchor="middle">PIO</text>
    <path d="M1178 548 L1178 608" class="line"/>

    <rect x="1244" y="608" width="94" height="88" class="box"/>
    <text x="1291" y="642" class="small" text-anchor="middle">7-seg</text>
    <text x="1291" y="670" class="small" text-anchor="middle">PIO</text>
    <path d="M1291 548 L1291 608" class="line"/>
  </g>

  <rect x="1010" y="754" width="110" height="52" class="box"/>
  <text x="1065" y="787" class="small" text-anchor="middle">LEDs</text>
  <path d="M1065 696 L1065 754" class="line"/>

  <rect x="1130" y="754" width="110" height="52" class="box"/>
  <text x="1185" y="787" class="small" text-anchor="middle">Switches</text>
  <path d="M1178 696 L1185 754" class="line"/>

  <rect x="1250" y="754" width="132" height="52" class="box"/>
  <text x="1316" y="777" class="tiny" text-anchor="middle">Seven-segment</text>
  <text x="1316" y="799" class="tiny" text-anchor="middle">display</text>
  <path d="M1291 696 L1316 754" class="line"/>
</svg>
